<svg width="14" height="24" viewBox="0 0 14 24" fill="none" xmlns="http://www.w3.org/2000/svg">
    <path
        d="M9.03906 6.03435L10.1707 7.5919C10.9807 6.78049 11.4823 5.66111 11.4823 4.42671C11.4823 4.1894 11.4636 3.9564 11.4278 3.729L9.59455 4.32466L9.03906 6.03435Z"
        fill="white" />
    <path d="M6.29522 1.92759V0C4.85983 0.227682 3.64902 1.13888 3.0083 2.38878L4.84089 2.98421L6.29522 1.92759Z"
        fill="white" />
    <path d="M10.9915 2.38878C10.3508 1.13888 9.13994 0.227682 7.70459 0V1.92759L9.15892 2.98421L10.9915 2.38878Z"
        fill="white" />
    <path d="M6.25397 5.45336H7.7457L8.20666 4.03464L6.99984 3.15784L5.79297 4.03464L6.25397 5.45336Z" fill="white" />
    <path
        d="M4.96077 6.0343L4.40528 4.32466L2.57199 3.729C2.53628 3.95645 2.51758 4.18944 2.51758 4.42671C2.51758 5.66106 3.01913 6.78045 3.82917 7.5919L4.96077 6.0343Z"
        fill="white" />
    <path
        d="M3.39021 9.83446C4.92211 12.5456 5.05733 15.852 3.75189 18.6791L3.42968 19.3768H10.5704L10.2483 18.6791C8.94277 15.852 9.07799 12.5456 10.6099 9.83446L10.6742 9.72066H12.2286V8.31115H8.95109L7.89885 6.86279H6.10125L5.04896 8.31115H1.77148V9.72066H3.32584L3.39021 9.83446Z"
        fill="white" />
    <path d="M12.5299 20.7864H1.46985L0.978027 24H13.0217L12.5299 20.7864Z" fill="white" />
</svg>