<svg width="18" height="19" viewBox="0 0 18 19" fill="none" xmlns="http://www.w3.org/2000/svg">
    <path
        d="M15.1 3.79929H4.42055C3.24419 3.80067 2.11635 4.29442 1.28438 5.17227C0.4524 6.05012 -0.0158103 7.24041 -0.0175781 8.48212C-0.0175781 8.71833 0.0713167 8.94487 0.22955 9.11189C0.387784 9.27892 0.602395 9.37275 0.826172 9.37275C1.04995 9.37275 1.26456 9.27892 1.42279 9.11189C1.58103 8.94487 1.66992 8.71833 1.66992 8.48212C1.67076 7.71239 1.96084 6.97444 2.47651 6.43019C2.99218 5.88594 3.69132 5.57984 4.42055 5.57906H15.1C15.1031 5.57906 12.9663 7.84013 12.9663 7.84013C12.6148 8.21123 12.6176 8.81834 12.9955 9.16271C13.1569 9.30932 13.3647 9.38613 13.5775 9.37774C13.7902 9.36934 13.9921 9.27636 14.1427 9.11744L17.7286 5.33599C17.8092 5.25097 17.8731 5.15002 17.9167 5.03891C17.9604 4.9278 17.9828 4.80871 17.9828 4.68843C17.9828 4.56816 17.9604 4.44906 17.9167 4.33795C17.8731 4.22684 17.8092 4.12589 17.7286 4.04087L14.143 0.2598C14.0645 0.177076 13.9714 0.11148 13.8689 0.0667572C13.7664 0.022034 13.6565 -0.000940398 13.5456 -0.000854251C13.4347 -0.000768104 13.3249 0.0223769 13.2224 0.0672592C13.12 0.112142 13.0269 0.177882 12.9486 0.260728C12.8702 0.343574 12.8081 0.441902 12.7657 0.550098C12.7233 0.658295 12.7016 0.77424 12.7016 0.891316C12.7017 1.00839 12.7236 1.1243 12.7662 1.23243C12.8087 1.34056 12.871 1.4388 12.9495 1.52152L15.1 3.79929Z"
        fill="white" />
    <path
        d="M2.86333 15.2008H13.5427C14.7191 15.1994 15.8469 14.7056 16.6789 13.8278C17.5109 12.9499 17.9791 11.7597 17.9809 10.5179C17.9809 10.2817 17.892 10.0552 17.7337 9.88817C17.5755 9.72115 17.3609 9.62731 17.1371 9.62731C16.9133 9.62731 16.6987 9.72115 16.5405 9.88817C16.3823 10.0552 16.2934 10.2817 16.2934 10.5179C16.2925 11.2877 16.0025 12.0256 15.4868 12.5699C14.9711 13.1141 14.272 13.4202 13.5427 13.421H2.86333C2.86016 13.421 4.99696 11.1599 4.99696 11.1599C5.34852 10.7888 5.34571 10.1817 4.96778 9.83735C4.80643 9.69074 4.59854 9.61393 4.38579 9.62233C4.17304 9.63072 3.97116 9.7237 3.82063 9.88263L0.234696 13.6641C0.1541 13.7491 0.0901638 13.85 0.0465424 13.9611C0.00292096 14.0723 -0.0195313 14.1914 -0.0195312 14.3116C-0.0195312 14.4319 0.00292096 14.551 0.0465424 14.6621C0.0901638 14.7732 0.1541 14.8742 0.234696 14.9592L3.82063 18.7406C3.97914 18.9077 4.19401 19.0014 4.41798 19.0012C4.64195 19.0009 4.85666 18.9068 5.01489 18.7395C5.17312 18.5722 5.2619 18.3454 5.2617 18.109C5.2615 17.8726 5.17234 17.6459 5.01384 17.4789L2.86333 15.2008Z"
        fill="white" />
</svg>