<svg width="24" height="22" viewBox="0 0 24 22" fill="none" xmlns="http://www.w3.org/2000/svg">
    <path
        d="M19.5 9.5H18.75C18.3358 9.5 18 9.83579 18 10.25C18 10.6642 18.3358 11 18.75 11H19.5C20.0965 11.0007 20.6685 11.2379 21.0903 11.6597C21.5121 12.0815 21.7493 12.6535 21.75 13.25V15.5C21.75 15.9142 22.0858 16.25 22.5 16.25C22.9142 16.25 23.25 15.9142 23.25 15.5V13.25C23.2488 12.2558 22.8534 11.3026 22.1504 10.5996C21.4474 9.89661 20.4942 9.50115 19.5 9.5Z"
        fill="white" />
    <path
        d="M18 2C18.445 2 18.88 2.13196 19.25 2.37919C19.62 2.62643 19.9084 2.97783 20.0787 3.38896C20.249 3.8001 20.2936 4.2525 20.2068 4.68895C20.12 5.12541 19.9057 5.52632 19.591 5.84099C19.2763 6.15566 18.8754 6.36995 18.439 6.45677C18.0025 6.54358 17.5501 6.49903 17.139 6.32873C16.7278 6.15843 16.3764 5.87004 16.1292 5.50003C15.882 5.13002 15.75 4.69501 15.75 4.25C15.75 3.65326 15.9871 3.08097 16.409 2.65901C16.831 2.23705 17.4033 2 18 2ZM18 0.5C17.2583 0.5 16.5333 0.719934 15.9166 1.13199C15.2999 1.54404 14.8193 2.12971 14.5355 2.81494C14.2516 3.50016 14.1774 4.25416 14.3221 4.98159C14.4667 5.70902 14.8239 6.3772 15.3483 6.90165C15.8728 7.4261 16.541 7.78325 17.2684 7.92795C17.9958 8.07264 18.7498 7.99838 19.4351 7.71455C20.1203 7.43072 20.706 6.95007 21.118 6.33339C21.5301 5.7167 21.75 4.99168 21.75 4.25C21.75 3.25544 21.3549 2.30161 20.6516 1.59835C19.9484 0.895088 18.9946 0.5 18 0.5Z"
        fill="white" />
    <path
        d="M17.25 20.75C17.25 21.1642 16.9142 21.5 16.5 21.5C16.0858 21.5 15.75 21.1642 15.75 20.75V20C15.7493 19.4035 15.5121 18.8315 15.0903 18.4097C14.6685 17.9879 14.0965 17.7507 13.5 17.75H10.5C9.90346 17.7507 9.33155 17.9879 8.90973 18.4097C8.48792 18.8315 8.25066 19.4035 8.25 20V20.75C8.25 21.1642 7.91421 21.5 7.5 21.5C7.08579 21.5 6.75 21.1642 6.75 20.75V20C6.75117 19.0058 7.14664 18.0527 7.84964 17.3496C8.55265 16.6466 9.5058 16.2512 10.5 16.25H13.5C14.4942 16.2512 15.4473 16.6466 16.1504 17.3496C16.8534 18.0527 17.2488 19.0058 17.25 20V20.75Z"
        fill="white" />
    <path
        d="M12 8.75C12.445 8.75 12.88 8.88196 13.25 9.12919C13.62 9.37643 13.9084 9.72783 14.0787 10.139C14.249 10.5501 14.2936 11.0025 14.2068 11.439C14.12 11.8754 13.9057 12.2763 13.591 12.591C13.2763 12.9057 12.8754 13.12 12.439 13.2068C12.0025 13.2936 11.5501 13.249 11.139 13.0787C10.7278 12.9084 10.3764 12.62 10.1292 12.25C9.88196 11.88 9.75 11.445 9.75 11C9.75 10.4033 9.98705 9.83097 10.409 9.40901C10.831 8.98705 11.4033 8.75 12 8.75ZM12 7.25C11.2583 7.25 10.5333 7.46993 9.91661 7.88199C9.29993 8.29404 8.81928 8.87971 8.53545 9.56494C8.25162 10.2502 8.17736 11.0042 8.32205 11.7316C8.46675 12.459 8.8239 13.1272 9.34835 13.6517C9.8728 14.1761 10.541 14.5333 11.2684 14.6779C11.9958 14.8226 12.7498 14.7484 13.4351 14.4645C14.1203 14.1807 14.706 13.7001 15.118 13.0834C15.5301 12.4667 15.75 11.7417 15.75 11C15.75 10.0054 15.3549 9.05161 14.6517 8.34835C13.9484 7.64509 12.9946 7.25 12 7.25Z"
        fill="white" />
    <path
        d="M6 10.25C6 9.83579 5.66421 9.5 5.25 9.5H4.5C3.5058 9.50117 2.55265 9.89664 1.84964 10.5996C1.14664 11.3027 0.751171 12.2558 0.75 13.25V15.5C0.75 15.9142 1.08579 16.25 1.5 16.25C1.91421 16.25 2.25 15.9142 2.25 15.5V13.25C2.25066 12.6535 2.48792 12.0815 2.90973 11.6597C3.33155 11.2379 3.90346 11.0007 4.5 11H5.25C5.66421 11 6 10.6642 6 10.25Z"
        fill="white" />
    <path
        d="M6 2C6.44501 2 6.88002 2.13196 7.25003 2.37919C7.62004 2.62643 7.90843 2.97783 8.07873 3.38896C8.24903 3.8001 8.29358 4.2525 8.20677 4.68895C8.11995 5.12541 7.90566 5.52632 7.59099 5.84099C7.27632 6.15566 6.87541 6.36995 6.43895 6.45677C6.0025 6.54358 5.5501 6.49903 5.13896 6.32873C4.72783 6.15843 4.37643 5.87004 4.12919 5.50003C3.88196 5.13002 3.75 4.69501 3.75 4.25C3.75 3.65326 3.98705 3.08097 4.40901 2.65901C4.83097 2.23705 5.40326 2 6 2ZM6 0.5C5.25832 0.5 4.5333 0.719934 3.91661 1.13199C3.29993 1.54404 2.81928 2.12971 2.53545 2.81494C2.25162 3.50016 2.17736 4.25416 2.32206 4.98159C2.46675 5.70902 2.8239 6.3772 3.34835 6.90165C3.8728 7.4261 4.54098 7.78325 5.26841 7.92795C5.99584 8.07264 6.74984 7.99838 7.43506 7.71455C8.12029 7.43072 8.70596 6.95007 9.11801 6.33339C9.53007 5.7167 9.75 4.99168 9.75 4.25C9.75 3.25544 9.35491 2.30161 8.65165 1.59835C7.94839 0.895088 6.99456 0.5 6 0.5Z"
        fill="white" />
</svg>