<svg width="20" height="20" viewBox="0 0 20 20" fill="none" xmlns="http://www.w3.org/2000/svg">
    <path fill-rule="evenodd" clip-rule="evenodd"
        d="M5.1875 19.625H14.8125C17.4704 19.625 19.625 17.4704 19.625 14.8125C19.625 11.9229 19.625 8.07706 19.625 5.1875C19.625 2.52962 17.4704 0.375 14.8125 0.375C11.9229 0.375 8.07706 0.375 5.1875 0.375C2.52962 0.375 0.375 2.52962 0.375 5.1875V14.8125C0.375 17.4704 2.52962 19.625 5.1875 19.625ZM6.5625 15.5H13.4375C13.817 15.5 14.125 15.192 14.125 14.8125C14.125 14.433 13.817 14.125 13.4375 14.125H6.5625C6.183 14.125 5.875 14.433 5.875 14.8125C5.875 15.192 6.183 15.5 6.5625 15.5ZM10.6875 6.84713L12.9514 9.11106C13.2196 9.37919 13.6554 9.37919 13.9236 9.11106C14.1917 8.84294 14.1917 8.40706 13.9236 8.13894L10.4861 4.70144C10.2179 4.43262 9.78206 4.43262 9.51394 4.70144L6.07644 8.13894C5.80831 8.40706 5.80831 8.84294 6.07644 9.11106C6.34456 9.37919 6.78044 9.37919 7.04856 9.11106L9.3125 6.84713V12.0625C9.3125 12.442 9.6205 12.75 10 12.75C10.3795 12.75 10.6875 12.442 10.6875 12.0625V6.84713Z"
        fill="white" fill-opacity="0.9" />
</svg>