<svg width="24" height="24" viewBox="0 0 24 24" fill="none" xmlns="http://www.w3.org/2000/svg">
    <path
        d="M23.9336 5.21305L22.2536 9.00507C22.137 9.27251 21.8764 9.4508 21.5884 9.46449C19.6204 9.54677 18.7427 7.12619 17.0284 6.63932L19.1678 1.81185C19.2364 1.66096 19.2707 1.51012 19.2776 1.35242C20.8821 1.75698 21.7461 3.8416 23.3919 4.16387C23.865 4.25302 24.1325 4.76731 23.9336 5.21305ZM18.1941 0.63238C17.8512 0.48154 17.4467 0.63238 17.2889 0.982105L14.4158 7.47592C14.8546 7.59934 15.2866 7.76391 15.6981 7.96962L18.5438 1.53067C18.585 1.44157 18.5987 1.35242 18.5987 1.25641C18.5987 0.995834 18.4478 0.74212 18.1941 0.63238ZM4.83624 1.81185C4.76764 1.66783 4.73336 1.51012 4.7265 1.35242C3.12193 1.75698 2.25105 3.8416 0.605336 4.16387C0.132187 4.25302 -0.128393 4.76731 0.0635887 5.21304L1.74362 9.00507C1.86018 9.27251 2.12076 9.4508 2.41562 9.46449C4.38364 9.54677 5.25452 7.13306 6.96883 6.63932L4.83624 1.81185ZM5.80995 0.63238C5.55624 0.74212 5.4054 0.995834 5.4054 1.25641C5.4054 1.35242 5.41909 1.44157 5.46023 1.53067L8.30599 7.96276C8.71055 7.76391 9.14256 7.59934 9.58143 7.46905L6.70825 0.982105C6.55741 0.63238 6.15281 0.48154 5.80995 0.63238ZM6.37911 13.7091L5.5631 11.2063C4.69908 12.4611 4.19166 13.9834 4.19166 15.6154V15.7183L6.19395 14.2646C6.37225 14.1411 6.4408 13.9149 6.37911 13.7091ZM7.08539 13.8874L9.25916 14.5937C9.33458 14.484 9.42372 14.388 9.53342 14.3126L11.3095 13.0234C11.4192 12.948 11.5358 12.8863 11.6592 12.852V10.4039C11.5358 10.3696 11.4192 10.308 11.3095 10.2325L8.86829 8.46336C7.78484 8.94337 6.83167 9.65651 6.06367 10.5411L7.03056 13.4965C7.0717 13.6268 7.09225 13.7571 7.08539 13.8874ZM12.0021 9.77308C12.1049 9.77308 12.2078 9.74566 12.2969 9.67706L14.3609 8.17533C13.6135 7.93534 12.8249 7.80505 12.0021 7.80505C11.1792 7.81192 10.3837 7.93534 9.64316 8.17533L11.714 9.67706C11.8032 9.74566 11.8992 9.77308 12.0021 9.77308ZM13.5655 17.5081L14.2443 15.4234C14.2787 15.3206 14.2787 15.2109 14.2443 15.1149C14.2101 15.0189 14.1484 14.9297 14.066 14.868L12.29 13.5788C12.2146 13.524 12.1255 13.4897 12.0295 13.4897H12.0226C12.0157 13.4829 12.0089 13.4829 12.0021 13.4829C11.9952 13.4829 11.9883 13.4829 11.9815 13.4897H11.9746C11.8786 13.4897 11.7895 13.524 11.7072 13.5788L9.93802 14.868C9.75973 14.9983 9.69117 15.2177 9.75973 15.4234L10.4317 17.5081C10.466 17.6109 10.5277 17.7 10.6169 17.7549C10.6992 17.8166 10.802 17.8509 10.9049 17.8509H13.0992C13.2021 17.8509 13.3049 17.8166 13.3872 17.7549C13.4695 17.7 13.5312 17.6109 13.5655 17.5081ZM8.67627 20.4224C8.59399 20.3606 8.49798 20.3264 8.38828 20.3264H5.77567C6.7357 21.5949 8.07969 22.5618 9.62943 23.0555L8.85456 20.6692C8.82028 20.5663 8.75855 20.4841 8.67627 20.4224ZM8.38828 19.6406C8.52543 19.6406 8.65572 19.6612 8.77228 19.7092L9.96543 18.0703C9.88315 17.9675 9.82146 17.8509 9.78027 17.7206L9.10141 15.636C9.06027 15.5057 9.03972 15.3754 9.04659 15.252L6.87968 14.5389C6.80426 14.6417 6.70825 14.7377 6.59855 14.82L4.24653 16.5275C4.37682 17.6589 4.74709 18.7149 5.30939 19.6406H8.38141C8.38828 19.6406 8.38828 19.6406 8.38828 19.6406ZM13.4832 18.468C13.3598 18.516 13.2295 18.5366 13.0992 18.5366H10.9049C10.7746 18.5366 10.6443 18.516 10.5209 18.468L9.32771 20.1138C9.40313 20.2166 9.46486 20.3332 9.50601 20.4567L10.418 23.2681C10.9323 23.371 11.4603 23.4258 12.002 23.4258C12.5438 23.4258 13.0718 23.371 13.5792 23.2681L14.4912 20.4567C14.5324 20.3264 14.5941 20.2098 14.6763 20.1069L13.4832 18.468ZM15.3347 20.4155L15.3141 20.4292C15.2386 20.4841 15.177 20.5664 15.1426 20.6692L14.3678 23.0624C15.9244 22.5687 17.2684 21.6018 18.2216 20.3264H15.6158C15.5129 20.3264 15.4169 20.3606 15.3347 20.4155ZM14.7449 14.5937L16.9187 13.8874C16.9118 13.7571 16.9324 13.6268 16.9735 13.4965L17.9335 10.5479C17.1792 9.65651 16.2192 8.93651 15.1289 8.46336L12.7015 10.2325C12.5918 10.3148 12.4683 10.3696 12.3449 10.4108V12.852C12.4683 12.8863 12.5849 12.948 12.6946 13.0234L14.4706 14.3126C14.5803 14.3948 14.6695 14.4909 14.7449 14.5937ZM17.1244 14.5389L14.9507 15.2451C14.9575 15.3754 14.9369 15.5057 14.8958 15.636L14.2238 17.7206C14.1826 17.8509 14.1209 17.9675 14.0386 18.0703L15.2318 19.7092C15.3552 19.6612 15.4787 19.6406 15.6158 19.6406H18.6947C19.2501 18.7149 19.6273 17.6589 19.7576 16.5275L17.3987 14.82C17.2889 14.7377 17.1998 14.6417 17.1244 14.5389ZM18.441 11.2063L17.6249 13.7091C17.5907 13.812 17.5907 13.9217 17.6249 14.0177C17.6593 14.1137 17.721 14.2029 17.8032 14.2646L19.8124 15.7251V15.6154C19.8124 13.9834 19.305 12.4611 18.441 11.2063ZM11.9815 13.4897H12.0226C12.0157 13.4829 12.0089 13.4829 12.0021 13.4829C11.9952 13.4829 11.9883 13.4829 11.9815 13.4897Z"
        fill="white" fill-opacity="0.9" />
</svg>