<svg width="20" height="20" viewBox="0 0 20 20" fill="none" xmlns="http://www.w3.org/2000/svg">
    <path
        d="M1.30039 0.400024C1.53909 0.400024 1.768 0.494845 1.93679 0.663628C2.10557 0.832411 2.20039 1.06133 2.20039 1.30002V16.3C2.20039 17.128 2.87239 17.8 3.70039 17.8H18.7004C18.9391 17.8 19.168 17.8948 19.3368 18.0636C19.5056 18.2324 19.6004 18.4613 19.6004 18.7C19.6004 18.9387 19.5056 19.1676 19.3368 19.3364C19.168 19.5052 18.9391 19.6 18.7004 19.6H3.70039C2.82518 19.6 1.98581 19.2523 1.36694 18.6335C0.748068 18.0146 0.400391 17.1752 0.400391 16.3V1.30002C0.400391 1.06133 0.495212 0.832411 0.663994 0.663628C0.832777 0.494845 1.0617 0.400024 1.30039 0.400024ZM12.4004 4.90002C12.4004 4.66133 12.4952 4.43241 12.664 4.26363C12.8328 4.09485 13.0617 4.00002 13.3004 4.00002H17.5004C17.7391 4.00002 17.968 4.09485 18.1368 4.26363C18.3056 4.43241 18.4004 4.66133 18.4004 4.90002V9.10003C18.4004 9.33872 18.3056 9.56764 18.1368 9.73642C17.968 9.9052 17.7391 10 17.5004 10C17.2617 10 17.0328 9.9052 16.864 9.73642C16.6952 9.56764 16.6004 9.33872 16.6004 9.10003V7.07202L11.8364 11.836C11.6676 12.0046 11.4389 12.0992 11.2004 12.0992C10.9619 12.0992 10.7331 12.0046 10.5644 11.836L8.80039 10.072L6.13639 12.736C5.96578 12.895 5.74013 12.9815 5.50696 12.9774C5.2738 12.9733 5.05134 12.8789 4.88644 12.714C4.72155 12.5491 4.62709 12.3266 4.62298 12.0935C4.61887 11.8603 4.70541 11.6346 4.86439 11.464L8.16439 8.16402C8.33314 7.99548 8.56189 7.90082 8.80039 7.90082C9.03889 7.90082 9.26764 7.99548 9.43639 8.16402L11.2004 9.92802L15.3284 5.80002H13.3004C13.0617 5.80002 12.8328 5.7052 12.664 5.53642C12.4952 5.36764 12.4004 5.13872 12.4004 4.90002Z"
        fill="white" />
</svg>