<svg width="24" height="18" viewBox="0 0 24 18" fill="none" xmlns="http://www.w3.org/2000/svg">
  <path
    d="M15.0397 7.82676L11.7388 5.92117C11.313 5.67417 10.8071 5.67526 10.3835 5.92117C9.95994 6.16601 9.70752 6.60367 9.70752 7.09334V10.9056C9.70752 11.3942 9.95994 11.834 10.3835 12.0778C10.5959 12.2013 10.8288 12.2619 11.0606 12.2619C11.2935 12.2619 11.5264 12.2013 11.7388 12.0778L15.0397 10.1733C15.4633 9.92734 15.7168 9.48859 15.7168 9.00001C15.7168 8.51034 15.4633 8.07159 15.0397 7.82676Z"
    fill="white" />
  <path
    d="M17.1651 3.82923C16.8477 3.51398 16.3321 3.51507 16.0157 3.83465C15.7005 4.15315 15.7026 4.66773 16.0211 4.98298C17.0958 6.0479 17.6873 7.47465 17.6873 8.99998C17.6873 10.5253 17.0958 11.9521 16.0211 13.017C15.7026 13.3322 15.7005 13.8468 16.0157 14.1664C16.175 14.3256 16.3841 14.4058 16.5931 14.4058C16.8001 14.4058 17.007 14.3278 17.1651 14.1707C18.5496 12.7992 19.3123 10.9619 19.3123 8.99998C19.3123 7.03698 18.5496 5.20182 17.1651 3.82923Z"
    fill="white" />
  <path
    d="M7.983 3.83465C7.66667 3.51507 7.15208 3.51398 6.83358 3.82923C5.44908 5.20182 4.6875 7.03807 4.6875 8.99998C4.6875 10.963 5.44908 12.7992 6.83358 14.1718C6.99175 14.3278 7.19867 14.4058 7.40558 14.4058C7.61467 14.4058 7.82483 14.3256 7.983 14.1664C8.29933 13.8468 8.29717 13.3322 7.97758 13.017C6.90292 11.9521 6.3125 10.5253 6.3125 8.99998C6.3125 7.47465 6.90292 6.0479 7.97758 4.98407C8.29717 4.66773 8.29933 4.15315 7.983 3.83465Z"
    fill="white" />
  <path
    d="M20.2332 0.766627C19.9158 0.44921 19.4012 0.44921 19.0838 0.766627C18.7663 1.08404 18.7663 1.59863 19.0838 1.91604C20.9774 3.80971 22.0207 6.32521 22.0207 8.99996C22.0207 11.6747 20.9774 14.1913 19.0838 16.085C18.7663 16.4024 18.7663 16.917 19.0838 17.2344C19.243 17.3925 19.451 17.4716 19.659 17.4716C19.867 17.4716 20.075 17.3925 20.2332 17.2344C22.4334 15.033 23.6457 12.108 23.6457 8.99996C23.6457 5.89079 22.4334 2.96688 20.2332 0.766627Z"
    fill="white" />
  <path
    d="M1.979 8.99996C1.979 6.32521 3.02117 3.80863 4.91484 1.91496C5.23225 1.59754 5.23225 1.08404 4.91484 0.766627C4.59742 0.44921 4.08392 0.44921 3.7665 0.766627C1.56625 2.96688 0.354004 5.89079 0.354004 8.99996C0.354004 12.108 1.56625 15.033 3.7665 17.2344C3.92467 17.3925 4.13267 17.4716 4.34067 17.4716C4.54867 17.4716 4.75667 17.3925 4.91484 17.2344C5.23225 16.917 5.23225 16.4024 4.91484 16.085C3.02117 14.1913 1.979 11.6747 1.979 8.99996Z"
    fill="white" />
</svg>