<svg width="16" height="16" viewBox="0 0 16 16" fill="none" xmlns="http://www.w3.org/2000/svg">
    <path
        d="M7.99996 13.3334C10.9455 13.3334 13.3333 10.9456 13.3333 8.00008C13.3333 5.05456 10.9455 2.66675 7.99996 2.66675C5.05444 2.66675 2.66663 5.05456 2.66663 8.00008C2.66663 10.9456 5.05444 13.3334 7.99996 13.3334Z"
        fill="white" />
    <path d="M6.66661 9.77797L6.22217 7.55575L7.99995 6.22241L9.77772 7.55575L9.33328 9.77797H6.66661Z"
        fill="#BEF20A" />
    <path d="M13.3066 8.2581C13.3599 6.92477 12.9777 5.68033 12.1421 4.66699L11.3777 6.90699L13.3066 8.26699V8.2581Z"
        fill="#BEF20A" />
    <path d="M3.85774 4.66699C3.03107 5.68921 2.62218 6.92477 2.6844 8.26699L4.62218 6.90699L3.85774 4.66699Z"
        fill="#BEF20A" />
    <path d="M9.91109 3.01354C8.5422 2.5691 7.51998 2.53354 6.08887 3.01354L7.99998 4.44465L9.91109 3.01354Z"
        fill="#BEF20A" />
    <path d="M6.60438 13.129L5.91104 10.8801L3.58215 10.9157C4.30215 12.0179 5.35104 12.7823 6.61326 13.129H6.60438Z"
        fill="#BEF20A" />
    <path d="M12.4533 10.9157L10.0888 10.8801L9.3866 13.1468C10.6666 12.8001 11.7155 12.0179 12.4444 10.9157H12.4533Z"
        fill="#BEF20A" />
    <path
        d="M2.65779 13.3423C1.95557 12.6401 1.40446 11.8134 1.02224 10.889C0.640014 9.96455 0.444458 8.99566 0.444458 8.0001C0.444458 7.00455 0.640014 6.02677 1.02224 5.11121C1.12001 4.8801 1.37779 4.77343 1.60001 4.87121C1.82224 4.96899 1.93779 5.22677 1.84001 5.44899C1.50224 6.25788 1.33335 7.1201 1.33335 8.0001C1.33335 9.75121 2.01779 11.449 3.2889 12.7112C3.46668 12.889 3.46668 13.1645 3.2889 13.3423C3.11112 13.5201 2.83557 13.5201 2.65779 13.3423Z"
        fill="#FEDA46" />
    <path
        d="M5.1111 14.9778C4.80888 14.8533 4.50666 14.7022 4.22221 14.5422C4.00888 14.4178 3.93777 14.1511 4.06221 13.9378C4.18666 13.7245 4.45332 13.6533 4.66666 13.7778C4.91554 13.92 5.18221 14.0533 5.44888 14.16C5.67999 14.2578 5.78665 14.5156 5.68888 14.7378C5.5911 14.9689 5.33332 15.0667 5.1111 14.9778Z"
        fill="#FEDA46" />
    <path
        d="M7.99995 13.778C4.81772 13.778 2.22217 11.1824 2.22217 8.00019C2.22217 4.81797 4.81772 2.22241 7.99995 2.22241C11.1822 2.22241 13.7777 4.81797 13.7777 8.00019C13.7777 11.1824 11.1822 13.778 7.99995 13.778ZM7.99995 3.1113C5.30661 3.1113 3.11106 5.30686 3.11106 8.00019C3.11106 10.6935 5.30661 12.8891 7.99995 12.8891C10.6933 12.8891 12.8888 10.6935 12.8888 8.00019C12.8888 5.30686 10.6933 3.1113 7.99995 3.1113Z"
        fill="#09C7A4" />
    <path
        d="M9.33324 10.2223H6.66657C6.45324 10.2223 6.27546 10.0711 6.23102 9.8667L5.78657 7.64447C5.75102 7.47558 5.82213 7.3067 5.95546 7.20003L7.73324 5.8667C7.89324 5.75114 8.10657 5.75114 8.26657 5.8667L10.0443 7.20003C10.1777 7.3067 10.2488 7.47558 10.2132 7.64447L9.76879 9.8667C9.72435 10.0711 9.54657 10.2223 9.33324 10.2223ZM7.03102 9.33336H8.96879L9.28879 7.74225L7.99991 6.77336L6.71102 7.74225L7.03102 9.33336Z"
        fill="#09C7A4" />
    <path
        d="M7.73336 4.80005L5.95558 3.46672C5.76002 3.31561 5.71558 3.04005 5.86669 2.8445C6.0178 2.64894 6.29336 2.61339 6.48891 2.75561L8.00002 3.8845L9.51114 2.75561C9.70669 2.6045 9.98225 2.64894 10.1334 2.8445C10.2845 3.04005 10.24 3.31561 10.0445 3.46672L8.26669 4.80005C8.10669 4.91561 7.89336 4.91561 7.73336 4.80005Z"
        fill="#09C7A4" />
    <path
        d="M2.43545 8.43575C2.29323 8.23131 2.34657 7.95575 2.54212 7.81353L4.08879 6.72909L3.47545 4.94242C3.39545 4.71131 3.5199 4.45353 3.75101 4.38242C3.98212 4.30242 4.23101 4.42687 4.31101 4.65798L5.03101 6.76464C5.09323 6.95131 5.03101 7.15576 4.86212 7.27131L3.04879 8.55131C2.84434 8.69353 2.56879 8.6402 2.42657 8.44464L2.43545 8.43575Z"
        fill="#09C7A4" />
    <path
        d="M6.14218 13.1287L5.58218 11.3242L3.69774 11.3509C3.45774 11.3509 3.2533 11.1553 3.2533 10.9153C3.2533 10.6664 3.44885 10.4709 3.68885 10.462L5.91107 10.4264C6.10663 10.4176 6.28441 10.5509 6.34663 10.7376L7.00441 12.862C7.07552 13.0931 6.94219 13.342 6.71107 13.422C6.47996 13.4931 6.23107 13.3687 6.15996 13.1287H6.14218Z"
        fill="#09C7A4" />
    <path
        d="M9.30663 13.422C9.07552 13.3509 8.94218 13.102 9.01329 12.862L9.67107 10.7376C9.73329 10.5509 9.91107 10.4176 10.1066 10.4264L12.3289 10.462C12.5777 10.462 12.7733 10.6664 12.7644 10.9153C12.7555 11.1642 12.5511 11.3687 12.3111 11.3509L10.4266 11.3242L9.86663 13.1287C9.79552 13.3687 9.54663 13.4931 9.31552 13.422H9.30663Z"
        fill="#09C7A4" />
    <path
        d="M12.9422 8.54203L11.1289 7.26203C10.9689 7.14648 10.8978 6.94203 10.96 6.75537L11.68 4.6487C11.76 4.41759 12.0178 4.29314 12.24 4.37314C12.4711 4.45314 12.5956 4.70203 12.5156 4.93314L11.9022 6.71981L13.4489 7.80426C13.6533 7.94648 13.6978 8.22203 13.5556 8.42648C13.4133 8.63092 13.1378 8.67537 12.9333 8.53314L12.9422 8.54203Z"
        fill="#09C7A4" />
    <path
        d="M7.99999 6.66667C7.7511 6.66667 7.55554 6.47111 7.55554 6.22222V4.44444C7.55554 4.19556 7.7511 4 7.99999 4C8.24888 4 8.44443 4.19556 8.44443 4.44444V6.22222C8.44443 6.47111 8.24888 6.66667 7.99999 6.66667Z"
        fill="#09C7A4" />
    <path
        d="M9.36884 7.72463C9.27995 7.49352 9.38662 7.23574 9.60884 7.14686L11.2088 6.48908C11.4311 6.40019 11.6977 6.50686 11.7866 6.72908C11.8755 6.96019 11.7688 7.21797 11.5466 7.30686L9.94662 7.96463C9.72439 8.05352 9.45773 7.94686 9.36884 7.72463Z"
        fill="#09C7A4" />
    <path
        d="M6.05338 7.96469L4.45338 7.30691C4.22226 7.21802 4.1156 6.95135 4.21338 6.72913C4.30226 6.49802 4.56893 6.39135 4.79115 6.48913L6.39115 7.14691C6.62226 7.2358 6.72893 7.50246 6.63115 7.72469C6.53338 7.9558 6.2756 8.06247 6.05338 7.96469Z"
        fill="#09C7A4" />
    <path
        d="M9.72445 11.1288L8.9689 10.0265C8.82667 9.8221 8.88001 9.54654 9.08445 9.40432C9.2889 9.2621 9.56445 9.31543 9.70667 9.51988L10.4622 10.6221C10.6045 10.8265 10.5511 11.1021 10.3467 11.2443C10.1422 11.3865 9.86667 11.3332 9.72445 11.1288Z"
        fill="#09C7A4" />
    <path
        d="M5.65331 11.2443C5.44887 11.1021 5.40442 10.8266 5.53776 10.6221L6.29331 9.51989C6.43554 9.31545 6.71109 9.271 6.91553 9.40433C7.11998 9.54656 7.16442 9.82211 7.03109 10.0266L6.27554 11.1288C6.13331 11.3332 5.85776 11.3777 5.65331 11.2443Z"
        fill="#09C7A4" />
    <path
        d="M11.3332 2.22232C11.0844 2.0801 10.8177 1.94677 10.551 1.8401C10.3288 1.74232 10.2132 1.48455 10.311 1.26232C10.4088 1.0401 10.6666 0.924547 10.8888 1.02232C11.191 1.14677 11.4932 1.29788 11.7777 1.45788C11.991 1.58232 12.0621 1.84899 11.9377 2.06232C11.8132 2.27566 11.5466 2.34677 11.3332 2.22232Z"
        fill="#FEDA46" />
    <path
        d="M14.4 11.1289C14.1778 11.0311 14.0622 10.7733 14.16 10.5511C14.4978 9.74219 14.6666 8.87997 14.6666 7.99997C14.6666 6.24886 13.9822 4.55108 12.7111 3.28886C12.5333 3.11108 12.5333 2.83553 12.7111 2.65775C12.8889 2.47997 13.1644 2.47997 13.3422 2.65775C14.7644 4.07997 15.5555 5.99997 15.5555 7.99997C15.5555 8.99553 15.36 9.9733 14.9778 10.8889C14.88 11.12 14.6222 11.2266 14.4 11.1289Z"
        fill="#FEDA46" />
</svg>