<svg width="32" height="32" viewBox="0 0 32 32" fill="none" xmlns="http://www.w3.org/2000/svg">
  <path
    d="M16 26.6666C21.891 26.6666 26.6666 21.891 26.6666 15.9999C26.6666 10.1089 21.891 5.33325 16 5.33325C10.1089 5.33325 5.33331 10.1089 5.33331 15.9999C5.33331 21.891 10.1089 26.6666 16 26.6666Z"
    fill="white" />
  <path d="M13.3332 19.5557L12.4443 15.1112L15.9999 12.4446L19.5554 15.1112L18.6666 19.5557H13.3332Z" fill="#09C7A4" />
  <path d="M26.6133 16.5157C26.7199 13.8491 25.9555 11.3602 24.2844 9.3335L22.7555 13.8135L26.6133 16.5335V16.5157Z"
    fill="#09C7A4" />
  <path d="M7.71547 9.3335C6.06214 11.3779 5.24436 13.8491 5.3688 16.5335L9.24436 13.8135L7.71547 9.3335Z"
    fill="#09C7A4" />
  <path d="M19.8221 6.02684C17.0843 5.13795 15.0399 5.06684 12.1777 6.02684L15.9999 8.88906L19.8221 6.02684Z"
    fill="#09C7A4" />
  <path d="M13.2088 26.258L11.8221 21.7603L7.16437 21.8314C8.60437 24.0358 10.7021 25.5647 13.2266 26.258H13.2088Z"
    fill="#09C7A4" />
  <path d="M24.9066 21.8314L20.1777 21.7603L18.7733 26.2936C21.3333 25.6003 23.431 24.0358 24.8888 21.8314H24.9066Z"
    fill="#09C7A4" />
  <path
    d="M5.31564 26.6846C3.9112 25.2802 2.80898 23.6269 2.04453 21.778C1.28009 19.9291 0.888977 17.9913 0.888977 16.0002C0.888977 14.0091 1.28009 12.0535 2.04453 10.2224C2.24009 9.7602 2.75564 9.54687 3.20009 9.74242C3.64453 9.93798 3.87564 10.4535 3.68009 10.898C3.00453 12.5158 2.66675 14.2402 2.66675 16.0002C2.66675 19.5024 4.03564 22.898 6.57787 25.4224C6.93342 25.778 6.93342 26.3291 6.57787 26.6846C6.22231 27.0402 5.6712 27.0402 5.31564 26.6846Z"
    fill="#FEDA46" />
  <path
    d="M10.2222 29.9553C9.61776 29.7064 9.01331 29.4042 8.44442 29.0842C8.01776 28.8353 7.87553 28.302 8.12442 27.8753C8.37331 27.4487 8.90664 27.3064 9.33331 27.5553C9.83109 27.8398 10.3644 28.1064 10.8978 28.3198C11.36 28.5153 11.5733 29.0309 11.3778 29.4753C11.1822 29.9376 10.6666 30.1331 10.2222 29.9553Z"
    fill="#FEDA46" />
  <path
    d="M15.9999 27.5557C9.63545 27.5557 4.44434 22.3646 4.44434 16.0001C4.44434 9.63569 9.63545 4.44458 15.9999 4.44458C22.3643 4.44458 27.5554 9.63569 27.5554 16.0001C27.5554 22.3646 22.3643 27.5557 15.9999 27.5557ZM15.9999 6.22236C10.6132 6.22236 6.22211 10.6135 6.22211 16.0001C6.22211 21.3868 10.6132 25.7779 15.9999 25.7779C21.3866 25.7779 25.7777 21.3868 25.7777 16.0001C25.7777 10.6135 21.3866 6.22236 15.9999 6.22236Z"
    fill="#BEF20A" />
  <path
    d="M18.6665 20.4443H13.3332C12.9065 20.4443 12.551 20.142 12.4621 19.7331L11.5732 15.2887C11.5021 14.9509 11.6443 14.6131 11.911 14.3998L15.4665 11.7331C15.7865 11.502 16.2132 11.502 16.5332 11.7331L20.0888 14.3998C20.3554 14.6131 20.4976 14.9509 20.4265 15.2887L19.5376 19.7331C19.4488 20.142 19.0932 20.4443 18.6665 20.4443ZM14.0621 18.6665H17.9376L18.5776 15.4843L15.9999 13.5465L13.4221 15.4843L14.0621 18.6665Z"
    fill="#BEF20A" />
  <path
    d="M15.4667 9.60035L11.9112 6.93368C11.52 6.63146 11.4312 6.08035 11.7334 5.68924C12.0356 5.29813 12.5867 5.22702 12.9778 5.51146L16 7.76924L19.0223 5.51146C19.4134 5.20924 19.9645 5.29813 20.2667 5.68924C20.5689 6.08035 20.4801 6.63146 20.0889 6.93368L16.5334 9.60035C16.2134 9.83146 15.7867 9.83146 15.4667 9.60035Z"
    fill="#BEF20A" />
  <path
    d="M4.87097 16.8713C4.58653 16.4624 4.69319 15.9113 5.0843 15.6268L8.17764 13.4579L6.95097 9.8846C6.79097 9.42238 7.03986 8.90682 7.50208 8.7646C7.9643 8.6046 8.46208 8.85349 8.62208 9.31571L10.0621 13.529C10.1865 13.9024 10.0621 14.3113 9.7243 14.5424L6.09764 17.1024C5.68875 17.3868 5.13764 17.2802 4.85319 16.889L4.87097 16.8713Z"
    fill="#BEF20A" />
  <path
    d="M12.2843 26.2576L11.1643 22.6487L7.39542 22.702C6.91542 22.702 6.50653 22.3109 6.50653 21.8309C6.50653 21.3331 6.89764 20.942 7.37764 20.9242L11.8221 20.8531C12.2132 20.8354 12.5688 21.102 12.6932 21.4754L14.0088 25.7242C14.151 26.1865 13.8843 26.6842 13.4221 26.8442C12.9599 26.9865 12.4621 26.7376 12.3199 26.2576H12.2843Z"
    fill="#BEF20A" />
  <path
    d="M18.6133 26.8442C18.151 26.702 17.8844 26.2042 18.0266 25.7242L19.3421 21.4754C19.4666 21.102 19.8221 20.8354 20.2133 20.8531L24.6577 20.9242C25.1555 20.9242 25.5466 21.3331 25.5288 21.8309C25.511 22.3287 25.1021 22.7376 24.6221 22.702L20.8533 22.6487L19.7333 26.2576C19.591 26.7376 19.0933 26.9865 18.631 26.8442H18.6133Z"
    fill="#BEF20A" />
  <path
    d="M25.8845 17.0843L22.2578 14.5243C21.9378 14.2932 21.7956 13.8843 21.9201 13.511L23.3601 9.29764C23.5201 8.83542 24.0356 8.58653 24.4801 8.74653C24.9423 8.90653 25.1912 9.40431 25.0312 9.86653L23.8045 13.4399L26.8978 15.6088C27.3067 15.8932 27.3956 16.4443 27.1112 16.8532C26.8267 17.2621 26.2756 17.351 25.8667 17.0665L25.8845 17.0843Z"
    fill="#BEF20A" />
  <path
    d="M15.9999 13.3333C15.5021 13.3333 15.111 12.9422 15.111 12.4444V8.88889C15.111 8.39111 15.5021 8 15.9999 8C16.4977 8 16.8888 8.39111 16.8888 8.88889V12.4444C16.8888 12.9422 16.4977 13.3333 15.9999 13.3333Z"
    fill="#BEF20A" />
  <path
    d="M18.7377 15.449C18.56 14.9868 18.7733 14.4712 19.2177 14.2935L22.4177 12.9779C22.8622 12.8001 23.3955 13.0135 23.5733 13.4579C23.7511 13.9201 23.5377 14.4357 23.0933 14.6135L19.8933 15.929C19.4488 16.1068 18.9155 15.8935 18.7377 15.449Z"
    fill="#BEF20A" />
  <path
    d="M12.1067 15.9291L8.90669 14.6136C8.44447 14.4358 8.23113 13.9025 8.42669 13.458C8.60447 12.9958 9.1378 12.7825 9.58225 12.978L12.7822 14.2936C13.2445 14.4714 13.4578 15.0047 13.2622 15.4491C13.0667 15.9114 12.5511 16.1247 12.1067 15.9291Z"
    fill="#BEF20A" />
  <path
    d="M19.4488 22.2578L17.9377 20.0533C17.6533 19.6444 17.76 19.0933 18.1688 18.8089C18.5777 18.5244 19.1288 18.6311 19.4133 19.04L20.9244 21.2444C21.2088 21.6533 21.1022 22.2044 20.6933 22.4889C20.2844 22.7733 19.7333 22.6667 19.4488 22.2578Z"
    fill="#BEF20A" />
  <path
    d="M11.3066 22.4889C10.8977 22.2045 10.8088 21.6534 11.0755 21.2445L12.5866 19.04C12.871 18.6311 13.4221 18.5422 13.831 18.8089C14.2399 19.0934 14.3288 19.6445 14.0621 20.0534L12.551 22.2578C12.2666 22.6667 11.7155 22.7556 11.3066 22.4889Z"
    fill="#BEF20A" />
  <path
    d="M22.6665 4.44465C22.1688 4.1602 21.6354 3.89354 21.1021 3.6802C20.6577 3.48465 20.4265 2.96909 20.6221 2.52465C20.8177 2.0802 21.3332 1.84909 21.7777 2.04465C22.3821 2.29354 22.9865 2.59576 23.5554 2.91576C23.9821 3.16465 24.1243 3.69798 23.8754 4.12465C23.6265 4.55132 23.0932 4.69354 22.6665 4.44465Z"
    fill="#FEDA46" />
  <path
    d="M28.8 22.2577C28.3556 22.0622 28.1245 21.5466 28.32 21.1022C28.9956 19.4844 29.3334 17.7599 29.3334 15.9999C29.3334 12.4977 27.9645 9.10216 25.4222 6.57772C25.0667 6.22216 25.0667 5.67105 25.4222 5.31549C25.7778 4.95994 26.3289 4.95994 26.6845 5.31549C29.5289 8.15994 31.1111 11.9999 31.1111 15.9999C31.1111 17.9911 30.72 19.9466 29.9556 21.7777C29.76 22.2399 29.2445 22.4533 28.8 22.2577Z"
    fill="#FEDA46" />
</svg>